<svg id="Layer_1" data-name="Layer 1" xmlns="http://www.w3.org/2000/svg" viewBox="0 0 518.067 111.9088">
  <g>
    <g id="type">
      <path id="type_CompoundPathItem_" data-name="type &lt;CompoundPathItem&gt;" d="M181.0542,81.9214h-6.8119a14.5659,14.5659,0,0,1-1.3336-4.7191,21.1948,21.1948,0,0,1-14.0923,5.6225q-6.055,0-9.5511-3.0275a10.8593,10.8593,0,0,1-.1274-15.844q3.37-3.078,11.6968-4.09l6.055-.8987a31.3791,31.3791,0,0,0,5.5865-1.3359,32.1413,32.1413,0,0,0-.18-4.128,6.14,6.14,0,0,0-1.062-2.5037,6.0741,6.0741,0,0,0-2.8305-2.0905,14.1412,14.1412,0,0,0-5.2261-.7929,12.2265,12.2265,0,0,0-6.6148,1.5522q-2.4293,1.55-3.3327,5.7667l-6.3434-.8314a12.8829,12.8829,0,0,1,5.37-8.8278q4.325-2.9555,11.8938-2.9554,6.884,0,10.1109,2.0327a8.386,8.386,0,0,1,3.9646,4.9209,30.8466,30.8466,0,0,1,.7377,7.4247v8.7221q0,7.9653.3051,10.6876A13.7852,13.7852,0,0,0,181.0542,81.9214Zm-8.578-16.8292V62.7471a68.8449,68.8449,0,0,1-12.4344,2.6863q-7.3526.9948-7.3525,6.2184a5.4779,5.4779,0,0,0,1.9823,4.34,8.4518,8.4518,0,0,0,5.6946,1.7156,13.3062,13.3062,0,0,0,8.4506-2.869Q172.475,71.9762,172.4762,65.0922Z" style="fill: #fff"/>
      <path id="type_CompoundPathItem_2" data-name="type &lt;CompoundPathItem&gt;" d="M221.743,68.6964q-1.2615,7.3166-5.7667,10.7213a16.495,16.495,0,0,1-10.2,3.4071q-8.3257,0-12.8669-5.4639-4.5414-5.4569-4.5413-14.47,0-7.4607,2.6142-11.9467a14.8844,14.8844,0,0,1,6.54-6.31,19.4391,19.4391,0,0,1,8.2536-1.8165A16.6789,16.6789,0,0,1,215.885,45.88a13.2579,13.2579,0,0,1,5.1732,9.0105l-6.2713.9755a11.2349,11.2349,0,0,0-3.1548-5.8051,8.0457,8.0457,0,0,0-5.5673-1.9463q-5.4423,0-8.2536,3.8589Q195,55.8295,195,62.7471q0,7.0642,2.7584,10.9039a9.1863,9.1863,0,0,0,7.946,3.84,8.8763,8.8763,0,0,0,6.5764-2.398q2.3969-2.3931,3.0107-7.1891Z" style="fill: #fff"/>
      <path id="type_CompoundPathItem_3" data-name="type &lt;CompoundPathItem&gt;" d="M249.4232,44.87l-2.2346,5.9829a9.355,9.355,0,0,0-4.7215-1.4032,6.0008,6.0008,0,0,0-5.5144,3.2582q-1.8742,3.2653-1.8742,9.14V81.9214H228.591V43.6834h5.9108V49.45h.1442q3.1-6.6318,8.1094-6.6317A12.68,12.68,0,0,1,249.4232,44.87Z" style="fill: #fff"/>
      <path id="type_CompoundPathItem_4" data-name="type &lt;CompoundPathItem&gt;" d="M288.0936,64.4435H259.44q.3965,6.3433,3.6234,9.6928a10.7154,10.7154,0,0,0,8.0541,3.3543,9.8278,9.8278,0,0,0,6.2353-1.9655,12.1744,12.1744,0,0,0,3.8565-5.93l6.6677.8313a16.3063,16.3063,0,0,1-5.9469,9.1883,17.6535,17.6535,0,0,1-10.8126,3.21q-8.6139,0-13.46-5.2813-4.8512-5.2765-4.8488-14.436,0-9.0465,4.7046-14.6666,4.7-5.6226,13.2442-5.6225a18.5734,18.5734,0,0,1,8.0542,1.8357,15.7068,15.7068,0,0,1,6.5788,6.2521Q288.0937,55.3249,288.0936,64.4435Zm-6.6677-5.3342q-.3965-5.8387-3.6234-8.4194a11.0561,11.0561,0,0,0-7.045-2.5758,10.0158,10.0158,0,0,0-7.5327,3.066,12.8,12.8,0,0,0-3.424,7.9292Z" style="fill: #fff"/>
      <path id="type_CompoundPathItem_5" data-name="type &lt;CompoundPathItem&gt;" d="M350.6238,81.9214H344.1V57.7733q0-4.6854-2.0184-7.0257-2.0183-2.3427-6.019-2.3451a10.39,10.39,0,0,0-7.0834,2.7584q-3.1176,2.7536-3.1164,9.8562V81.9214h-6.4875V29.084h6.4875V48.042a14.7459,14.7459,0,0,1,11.5334-5.2236,17.2165,17.2165,0,0,1,7.1,1.5137,8.92,8.92,0,0,1,4.7575,4.647,22.3584,22.3584,0,0,1,1.37,8.7221Z" style="fill: #fff"/>
      <path id="type_CompoundPathItem_6" data-name="type &lt;CompoundPathItem&gt;" d="M395.1331,64.4435H366.48q.3966,6.3433,3.6235,9.6928a10.7152,10.7152,0,0,0,8.0541,3.3543,9.8273,9.8273,0,0,0,6.2352-1.9655,12.173,12.173,0,0,0,3.8565-5.93l6.6678.8313a16.3063,16.3063,0,0,1-5.9469,9.1883,17.6537,17.6537,0,0,1-10.8126,3.21q-8.6141,0-13.46-5.2813-4.8513-5.2765-4.8489-14.436,0-9.0465,4.7047-14.6666,4.7-5.6226,13.2442-5.6225a18.5733,18.5733,0,0,1,8.0541,1.8357,15.707,15.707,0,0,1,6.5789,6.2521Q395.1332,55.3249,395.1331,64.4435Zm-6.6677-5.3342q-.3965-5.8387-3.6234-8.4194a11.0563,11.0563,0,0,0-7.045-2.5758,10.0159,10.0159,0,0,0-7.5328,3.066,12.8,12.8,0,0,0-3.4239,7.9292Z" style="fill: #fff"/>
      <path id="type_CompoundPathItem_7" data-name="type &lt;CompoundPathItem&gt;" d="M437.59,81.9214h-6.8119a14.5659,14.5659,0,0,1-1.3336-4.7191,21.1948,21.1948,0,0,1-14.0923,5.6225q-6.055,0-9.5511-3.0275a10.8593,10.8593,0,0,1-.1274-15.844q3.37-3.078,11.6968-4.09l6.0551-.8987a31.38,31.38,0,0,0,5.5864-1.3359,32.1413,32.1413,0,0,0-.18-4.128,6.14,6.14,0,0,0-1.062-2.5037,6.0741,6.0741,0,0,0-2.83-2.0905,14.1412,14.1412,0,0,0-5.2261-.7929,12.2265,12.2265,0,0,0-6.6148,1.5522q-2.4292,1.55-3.3327,5.7667l-6.3434-.8314a12.8829,12.8829,0,0,1,5.37-8.8278q4.325-2.9555,11.8938-2.9554,6.8839,0,10.1109,2.0327a8.386,8.386,0,0,1,3.9646,4.9209,30.8466,30.8466,0,0,1,.7377,7.4247v8.7221q0,7.9653.3051,10.6876A13.7869,13.7869,0,0,0,437.59,81.9214Zm-8.578-16.8292V62.7471a68.8449,68.8449,0,0,1-12.4344,2.6863q-7.3525.9948-7.3525,6.2184a5.4779,5.4779,0,0,0,1.9823,4.34,8.4518,8.4518,0,0,0,5.6946,1.7156,13.3062,13.3062,0,0,0,8.4506-2.869Q429.0112,71.9762,429.0124,65.0922Z" style="fill: #fff"/>
      <path id="type_CompoundPathItem_8" data-name="type &lt;CompoundPathItem&gt;" d="M453.4464,81.9214h-6.4875V29.084h6.4875Z" style="fill: #fff"/>
      <path id="type_CompoundPathItem_9" data-name="type &lt;CompoundPathItem&gt;" d="M479.7569,81.8493a25.54,25.54,0,0,1-4.8656.5767q-4.253,0-6.1992-1.4946a6.075,6.075,0,0,1-2.3788-3.8012,36.768,36.768,0,0,1-.4325-6.4154V48.6908h-4.7214V43.6834h4.7214V34.1683l6.4876-3.9309v13.446h6.4875v5.0074h-6.4875V71.0752a9.976,9.976,0,0,0,.5959,4.09c.394.8074,1.3984,1.2062,3.0083,1.2062a15.0408,15.0408,0,0,0,2.8833-.2883Z" style="fill: #fff"/>
      <path id="type_CompoundPathItem_10" data-name="type &lt;CompoundPathItem&gt;" d="M518.067,81.9214h-6.5236V57.7733q0-4.6854-2.0183-7.0257-2.0184-2.3427-6.019-2.3451a10.39,10.39,0,0,0-7.0834,2.7584q-3.1176,2.7536-3.1164,9.8562V81.9214h-6.4876V29.084h6.4876V48.042A14.7457,14.7457,0,0,1,504.84,42.8184a17.2168,17.2168,0,0,1,7.1,1.5137,8.92,8.92,0,0,1,4.7575,4.647,22.3584,22.3584,0,0,1,1.37,8.7221Z" style="fill: #fff"/>
    </g>
    <path id="logoMark" d="M118.8424,14.4136v97.4952L90.46,90.4282H14.1848A14.3125,14.3125,0,0,1,0,76.021V53.8858A14.3126,14.3126,0,0,1,14.1848,39.4785H93.39v6.9908H14.1848a7.3148,7.3148,0,0,0-7.1941,7.4165V76.021a7.3189,7.3189,0,0,0,7.1941,7.4165h78.62l19.0465,14.4136V14.4136a7.3151,7.3151,0,0,0-7.1877-7.4229H35.265a7.3151,7.3151,0,0,0-7.1877,7.4229V31.3057H21.0866V14.4136A14.3126,14.3126,0,0,1,35.265,0h69.3989A14.3127,14.3127,0,0,1,118.8424,14.4136Z" style="fill: #fff"/>
  </g>
</svg>
