<?xml version="1.0" encoding="iso-8859-1"?>
<!-- Generator: Adobe Illustrator 19.0.0, SVG Export Plug-In . SVG Version: 6.00 Build 0)  -->
<svg version="1.1" id="Layer_1" xmlns="http://www.w3.org/2000/svg" xmlns:xlink="http://www.w3.org/1999/xlink" x="0px" y="0px"
	 viewBox="0 0 512.001 512.001" style="enable-background:new 0 0 512.001 512.001;" xml:space="preserve">
<path style="fill:#FFB700;" d="M492.091,326.2c-22.456-22.469-55.946-25.427-81.162-11.213l-71.947-71.948
	c-3.44-3.441-8.107-5.374-12.972-5.374c-10.132,0-8.237,0.64-69.96,62.361v51.89l58.976,58.974
	c-14.328,25.419-11.098,58.866,11.205,81.154c42.851,42.876,115.768,11.938,115.768-47.942c0-0.738-0.012-1.474-0.035-2.208
	C503.913,443.825,534.978,369.058,492.091,326.2z"/>
<path style="fill:#FFBE00;" d="M186.088,274.356L186.088,274.356c-10.141,0-6.85,0.749-84.92-77.322
	c-25.219,14.213-58.708,11.255-81.162-11.214C-22.968,142.874,8.296,68.206,70.135,70.125C68.122,8.334,142.9-23.02,185.868,19.975
	c22.211,22.196,25.595,55.626,11.205,81.154c77.591,77.59,77.322,74.579,77.322,84.92c0,4.865-1.932,9.533-5.374,12.973
	C193.6,274.443,196.415,274.356,186.088,274.356z"/>
<path style="fill:#FFC72D;" d="M70.135,441.894C9.073,443.82-23.521,369.696,20.015,326.19c22.2-22.214,55.627-25.593,81.155-11.206
	l213.856-213.856c-14.215-25.216-11.255-58.708,11.214-81.162c43.494-43.522,117.712-10.87,115.723,50.159
	c61.94-1.914,93.021,72.812,50.129,115.695l0,0c-0.002,0.001-0.002,0.002-0.005,0.004c-0.001,0.001-0.002,0.004-0.004,0.004
	c-22.462,22.468-55.949,25.412-81.155,11.206L197.073,410.889c14.215,25.216,11.255,58.709-11.214,81.162
	C142.922,535.018,68.121,503.735,70.135,441.894z"/>
<path style="fill:#FFBE00;" d="M441.962,70.126c1.983-60.88-72.118-93.793-115.723-50.159c-22.464,22.45-25.433,55.94-11.214,81.162
	l-58.976,58.976v191.81l154.88-154.88c25.204,14.205,58.692,11.263,81.155-11.206c0.001-0.001,0.002-0.002,0.004-0.004
	c0.002-0.002,0.002-0.002,0.005-0.004C534.986,142.936,503.896,68.213,441.962,70.126z"/>
<g>
</g>
<g>
</g>
<g>
</g>
<g>
</g>
<g>
</g>
<g>
</g>
<g>
</g>
<g>
</g>
<g>
</g>
<g>
</g>
<g>
</g>
<g>
</g>
<g>
</g>
<g>
</g>
<g>
</g>
</svg>
