<svg id="Layer_1" data-name="Layer 1" xmlns="http://www.w3.org/2000/svg" viewBox="0 0 1024 1024"><path d="M924.52,215H765.14l-38-102.68c-5.38-14.39-19.54-24-35.4-24H332.23c-15.83,0-30,9.61-35.28,24L258.86,215H99.48c-51.8,0-93.75,40.48-93.75,90.47V821.16c0,50,42,90.46,93.75,90.46h825c51.8,0,93.75-40.48,93.75-90.46V305.5C1018.27,255.51,976.32,215,924.52,215Zm9.37,606.13a9.23,9.23,0,0,1-9.37,9h-825a9.23,9.23,0,0,1-9.37-9V305.5a9.24,9.24,0,0,1,9.37-9.05h218.8l20-54,26.84-72.6H658.73l26.83,72.6,20,54H924.52a9.24,9.24,0,0,1,9.37,9.05ZM512,368.82c-103.6,0-187.51,81-187.51,180.94S408.4,730.69,512,730.69s187.51-81,187.51-180.93S615.6,368.82,512,368.82Zm0,289.5c-62.11,0-112.51-48.63-112.51-108.56S449.89,441.2,512,441.2s112.51,48.62,112.51,108.56S574.11,658.32,512,658.32Z"/></svg>