<?xml version="1.0" encoding="iso-8859-1"?>
<!-- Generator: Adobe Illustrator 18.0.0, SVG Export Plug-In . SVG Version: 6.00 Build 0)  -->
<!DOCTYPE svg PUBLIC "-//W3C//DTD SVG 1.1//EN" "http://www.w3.org/Graphics/SVG/1.1/DTD/svg11.dtd">
<svg version="1.1" id="Capa_1" xmlns="http://www.w3.org/2000/svg" xmlns:xlink="http://www.w3.org/1999/xlink" x="0px" y="0px"
	 viewBox="0 0 297.012 297.012" style="enable-background:new 0 0 297.012 297.012;" xml:space="preserve">
<path d="M257.655,27.188h-70.354C181.521,11.346,166.315,0,148.505,0c-17.81,0-33.016,11.346-38.797,27.188H39.355
	c-5.581,0-10.104,4.525-10.104,10.106v249.612c0,5.581,4.524,10.105,10.104,10.105h218.3c5.582,0,10.105-4.525,10.105-10.105V37.294
	C267.761,31.713,263.237,27.188,257.655,27.188z M80.646,47.4h10.971v19.879c0,5.581,4.525,10.106,10.107,10.106h93.561
	c5.582,0,10.107-4.525,10.107-10.106V47.4h10.969v186.616H80.646V47.4z M148.505,20.213c11.622,0,21.079,9.465,21.079,21.097
	c0,5.582,4.524,10.106,10.105,10.106h5.489v5.757h-73.348v-5.757h5.489c5.581,0,10.105-4.524,10.105-10.106
	C127.426,29.678,136.883,20.213,148.505,20.213z M247.549,276.801H49.463V47.4h10.971v196.723c0,5.581,4.526,10.107,10.106,10.107
	h155.928c5.58,0,10.107-4.525,10.107-10.107V47.4h10.975V276.801z"/>
<g>
</g>
<g>
</g>
<g>
</g>
<g>
</g>
<g>
</g>
<g>
</g>
<g>
</g>
<g>
</g>
<g>
</g>
<g>
</g>
<g>
</g>
<g>
</g>
<g>
</g>
<g>
</g>
<g>
</g>
</svg>
