<?xml version="1.0" ?><svg viewBox="0 0 512 512" xmlns="http://www.w3.org/2000/svg"><defs><style>.cls-1{fill:#cc8c8c;}.cls-2{fill:#0071af;}.cls-3{fill:#f0a5a5;}.cls-4{fill:#f9b7b7;}.cls-5{fill:#ec9090;}.cls-6{fill:#d27676;}.cls-7{fill:#ea8383;}.cls-8{fill:#00b378;}.cls-9{fill:#d49c9c;}.cls-10{fill:#c97b7b;}.cls-11{fill:#006095;}.cls-12{fill:#009866;}.cls-13{fill:#cbe2ef;}.cls-14{fill:#7db6d6;}</style></defs><g data-name="/ FLAT" id="_FLAT"><rect class="cls-1" height="72" width="112" x="200" y="272"/><path class="cls-2" d="M460.75623,408.81982a80,80,0,0,0-53.785-52.8872L312,328h0a112.87125,112.87125,0,0,1-111.99994,0H200l-94.97113,27.93262a80.00013,80.00013,0,0,0-53.7851,52.8872L24,496H488Z"/><path class="cls-3" d="M149.66553,152H168v72l-31.60132-15.80066A29.66556,29.66556,0,0,1,120,181.66565v-.00006A29.66558,29.66558,0,0,1,149.66553,152Z"/><path class="cls-3" d="M362.33447,152H344v72l31.60132-15.80066A29.66556,29.66556,0,0,0,392,181.66565v-.00006A29.66558,29.66558,0,0,0,362.33447,152Z"/><path class="cls-4" d="M152,80V206.76923a80.00008,80.00008,0,0,0,51.28168,74.66766l24,9.23083a80.00172,80.00172,0,0,0,57.43658,0l24-9.23083A80,80,0,0,0,360,206.76923V72Z"/><polygon class="cls-5" points="232 96 360 136 360 64 232 96"/><path class="cls-6" d="M345.25567,82.907,152,128V80a56,56,0,0,1,56-56H392v.00005A60.48928,60.48928,0,0,1,345.25567,82.907Z"/><path class="cls-7" d="M264,248h-6.52637a23.32905,23.32905,0,0,1-20.0039-35.332l19.67041-32.78369,13.71972,8.23144L251.18945,220.8999A7.32888,7.32888,0,0,0,257.47363,232H264Z"/><polygon class="cls-7" points="306.343 205.657 275.443 174.757 307.563 153.344 316.438 166.656 300.557 177.243 317.657 194.343 306.343 205.657"/><path class="cls-8" d="M312.48816,227.39526a24.957,24.957,0,0,0-17.161-.50433l-3.74732,1.24915a24.95754,24.95754,0,0,1-21.73608-2.91089,24.95721,24.95721,0,0,0-27.68756,0,24.95739,24.95739,0,0,1-21.736,2.91089l-2.613-.871a24.95721,24.95721,0,0,0-19.05341,1.35407L176,240l8,168,13.09406,17.45874a15.76444,15.76444,0,0,0,23.75872,1.68848h.00006a15.7643,15.7643,0,0,1,22.29432,0l1.70568,1.70556a15.76437,15.76437,0,0,0,22.29438,0l1.70556-1.70556a15.76444,15.76444,0,0,1,22.29444,0h0a15.76452,15.76452,0,0,0,23.75879-1.68848L328,408l16-168Z"/><path class="cls-9" d="M215.46863,286.12427l11.81305,4.54345a80.00172,80.00172,0,0,0,57.43658,0l24-9.23083A80,80,0,0,0,360,206.76923V88.00018C360,180.73938,299.301,259.29,215.46863,286.12427Z"/><polygon class="cls-7" points="197.657 205.657 186.343 194.343 203.443 177.243 187.562 166.656 196.437 153.344 228.557 174.757 197.657 205.657"/><path class="cls-10" d="M360,136V88.00018a208.63989,208.63989,0,0,1-5.19031,46.37787Z"/><path class="cls-11" d="M312.00024,496H488l-26.14673-83.66956A175.87973,175.87973,0,0,1,312.00024,496Z"/><path class="cls-12" d="M234.9079,422.80347a15.68464,15.68464,0,0,1,8.23926,4.34375l1.70568,1.70556a15.76437,15.76437,0,0,0,22.29438,0l1.70556-1.70556a15.76444,15.76444,0,0,1,22.29444,0,15.76452,15.76452,0,0,0,23.75879-1.68848L328,408l7.41284-77.83545A208.80679,208.80679,0,0,1,234.9079,422.80347Z"/><rect class="cls-13" height="16" width="16" x="400" y="120"/><rect class="cls-14" height="15.99967" transform="translate(-7.57778 357.70563) rotate(-45)" width="56.56854" x="399.71573" y="180.00016"/><rect class="cls-13" height="16" width="16" x="456" y="200"/><rect class="cls-13" height="16" width="16" x="440" y="128"/><rect class="cls-13" height="16" width="16" x="424" y="320"/><rect class="cls-13" height="16" width="16" x="480" y="344"/><rect class="cls-14" height="75.89466" transform="translate(72.11615 588.05581) rotate(-71.56505)" width="15.99977" x="436.00012" y="206.05267"/><rect class="cls-14" height="90.50967" transform="translate(-80.43059 397.82338) rotate(-45)" width="15.99967" x="432.00016" y="250.74517"/><rect class="cls-13" height="16" width="16" x="480" y="280"/><rect class="cls-13" height="16" width="16" x="472" y="160"/><rect class="cls-13" height="16" width="16" x="32" y="208"/><rect class="cls-13" height="16" width="16" x="88" y="136"/><rect class="cls-13" height="16" width="16" x="48" y="120"/><rect class="cls-13" height="16" width="16" x="72" y="328"/><rect class="cls-14" height="56.56854" transform="translate(-110.67619 108.80404) rotate(-45)" width="15.99967" x="68.00016" y="159.71573"/><rect class="cls-14" height="15.99977" transform="translate(-73.67004 34.02476) rotate(-18.43495)" width="75.89466" x="30.05267" y="236.00012"/><rect class="cls-14" height="15.99967" transform="translate(-196.2153 134.29437) rotate(-45)" width="90.50967" x="18.74517" y="296.00016"/><rect class="cls-13" height="16" width="16" x="16" y="280"/><rect class="cls-13" height="16" width="16" x="16" y="160"/><path class="cls-12" d="M215.46863,286.12427l11.81305,4.54345a80.00172,80.00172,0,0,0,57.43658,0l24-9.23083a79.88331,79.88331,0,0,0,33.67822-24.60071L344,240l-31.51184-12.60474a24.91965,24.91965,0,0,0-4.89587-1.37786A208.1895,208.1895,0,0,1,215.46863,286.12427Z"/><path class="cls-3" d="M276.783,260.48682l61.50574-24.60236a32.00008,32.00008,0,0,1,41.59576,17.82678l15.3617,38.40424a32.0004,32.0004,0,0,1,0,23.769l-8.807,22.01734a16,16,0,0,0,.1095,12.15124L448,496H344L321.99152,378.62134a16.00005,16.00005,0,0,0-12.58814-12.74072l-11.756-2.35108a32.00033,32.00033,0,0,1-23.79773-20.44287l-15.25555-41.95288A31.99994,31.99994,0,0,1,276.783,260.48682Z"/><path class="cls-5" d="M271.1488,263.41284a32.12237,32.12237,0,0,1,5.63422-2.926l8.9895-3.59583,17.45355,43.63391-14.85546,5.94239Z"/><polygon class="cls-5" points="297.155 252.338 312.015 246.394 330.616 289.796 315.91 296.099 297.155 252.338"/><path class="cls-5" d="M338.28876,235.88446a32.24554,32.24554,0,0,1,4.14752-1.334l17.65356,44.13409L345.23438,284.627l-17.76569-44.41443Z"/><path class="cls-3" d="M235.217,260.48682l-61.50574-24.60236a32.00008,32.00008,0,0,0-41.59576,17.82678l-15.3617,38.40424a32.0004,32.0004,0,0,0,0,23.769l8.807,22.01734a16,16,0,0,1-.1095,12.15124L64,496H168l22.00848-117.37866a16.00005,16.00005,0,0,1,12.58814-12.74072l11.756-2.35108a32.00033,32.00033,0,0,0,23.79773-20.44287l15.25555-41.95288A31.99994,31.99994,0,0,0,235.217,260.48682Z"/><path class="cls-5" d="M240.8512,263.41284a32.12237,32.12237,0,0,0-5.63422-2.926l-8.9895-3.59583L208.77393,300.5249l14.85546,5.94239Z"/><polygon class="cls-5" points="214.845 252.338 199.985 246.394 181.384 289.796 196.09 296.099 214.845 252.338"/><path class="cls-5" d="M173.71124,235.88446a32.24554,32.24554,0,0,0-4.14752-1.334l-17.65356,44.13409,14.85546,5.94238,17.76569-44.41443Z"/><path class="cls-1" d="M343.46948,493.17065,344,496H448l-18.82422-44.70728A175.3657,175.3657,0,0,1,343.46948,493.17065Z"/></g></svg>