<svg id="Layer_1" data-name="Layer 1" xmlns="http://www.w3.org/2000/svg" viewBox="0 0 512 512"><defs><style>.cls-1{fill:#cc8c8c;}.cls-2{fill:#0071af;}.cls-3{fill:#f0a5a5;}.cls-4{fill:#f9b7b7;}.cls-5{fill:#ec9090;}.cls-6{fill:#d27676;}.cls-7{fill:#ea8383;}.cls-8{fill:#00b378;}.cls-9{fill:#d49c9c;}.cls-10{fill:#c97b7b;}.cls-11{fill:#006095;}.cls-12{fill:#009866;}.cls-13{fill:#cbe2ef;}.cls-14{fill:#7db6d6;}</style></defs><g id="_FLAT" data-name=" FLAT"><rect class="cls-1" x="196.27" y="272.8" width="119.47" height="76.8"/><path class="cls-2" d="M474.41,418.74A85.36,85.36,0,0,0,417,362.33l-101.31-29.8h0a120.39,120.39,0,0,1-119.46,0h0L95,362.33a85.36,85.36,0,0,0-57.37,56.41l-29.06,93H503.47Z"/><path class="cls-3" d="M142.58,144.8h19.55v76.8l-33.7-16.85a31.66,31.66,0,0,1-17.5-28.31h0A31.65,31.65,0,0,1,142.58,144.8Z"/><path class="cls-3" d="M369.42,144.8H349.87v76.8l33.7-16.85a31.66,31.66,0,0,0,17.5-28.31h0A31.65,31.65,0,0,0,369.42,144.8Z"/><path class="cls-4" d="M145.07,68V203.22a85.34,85.34,0,0,0,54.7,79.65l25.6,9.84a85.25,85.25,0,0,0,61.26,0l25.6-9.84a85.34,85.34,0,0,0,54.7-79.65V59.47Z"/><polygon class="cls-5" points="230.4 85.07 366.93 127.73 366.93 50.93 230.4 85.07"/><path class="cls-6" d="M351.21,71.1,145.07,119.2V68A59.73,59.73,0,0,1,204.8,8.27H401.07A64.52,64.52,0,0,1,351.21,71.1Z"/><path class="cls-7" d="M264.53,247.2h-7a24.89,24.89,0,0,1-21.34-37.69l21-35,14.63,8.78-21,35a7.81,7.81,0,0,0,6.7,11.84h7Z"/><polygon class="cls-7" points="309.7 202.03 276.74 169.07 311 146.23 320.47 160.43 303.53 171.73 321.77 189.97 309.7 202.03"/><path class="cls-8" d="M316.25,225.22a26.6,26.6,0,0,0-18.3-.54L294,226a26.63,26.63,0,0,1-23.18-3.11,26.64,26.64,0,0,0-29.54,0A26.63,26.63,0,0,1,218.05,226l-2.79-.93a26.56,26.56,0,0,0-20.32,1.44l-24.27,12.14,8.53,179.2,14,18.62a16.82,16.82,0,0,0,25.34,1.8h0a16.81,16.81,0,0,1,23.78,0h0l1.82,1.82a16.81,16.81,0,0,0,23.78,0h0l1.82-1.82a16.81,16.81,0,0,1,23.78,0h0a16.81,16.81,0,0,0,23.78,0,15.73,15.73,0,0,0,1.56-1.8l14-18.62,17.07-179.2Z"/><path class="cls-9" d="M212.77,287.87l12.6,4.84a85.25,85.25,0,0,0,61.26,0l25.6-9.84a85.34,85.34,0,0,0,54.7-79.65V76.53C366.93,175.46,302.19,259.24,212.77,287.87Z"/><polygon class="cls-7" points="193.77 202.03 181.7 189.97 199.94 171.73 183 160.43 192.47 146.23 226.73 169.07 193.77 202.03"/><path class="cls-10" d="M366.93,127.73V76.53A222.5,222.5,0,0,1,361.4,126Z"/><path class="cls-11" d="M315.73,511.73H503.47l-27.89-89.24A187.61,187.61,0,0,1,315.73,511.73Z"/><path class="cls-12" d="M233.5,433.66a16.72,16.72,0,0,1,8.79,4.63l1.82,1.82a16.81,16.81,0,0,0,23.78,0h0l1.82-1.82a16.81,16.81,0,0,1,23.78,0h0a16.81,16.81,0,0,0,23.78,0,15.73,15.73,0,0,0,1.56-1.8l14-18.62,7.91-83A222.73,222.73,0,0,1,233.5,433.66Z"/><rect class="cls-13" x="409.6" y="110.67" width="17.07" height="17.07"/><rect class="cls-14" x="409.3" y="174.67" width="60.34" height="17.07" transform="translate(-0.83 364.41) rotate(-45)"/><rect class="cls-13" x="469.33" y="196" width="17.07" height="17.07"/><rect class="cls-13" x="452.27" y="119.2" width="17.07" height="17.07"/><rect class="cls-13" x="435.2" y="324" width="17.07" height="17.07"/><rect class="cls-13" x="494.93" y="349.6" width="17.07" height="17.07"/><rect class="cls-14" x="448" y="202.46" width="17.07" height="80.95" transform="translate(81.7 599.22) rotate(-71.57)"/><rect class="cls-14" x="443.73" y="250.13" width="17.07" height="96.54" transform="translate(-78.53 407.2) rotate(-45)"/><rect class="cls-13" x="494.93" y="281.33" width="17.07" height="17.07"/><rect class="cls-13" x="486.4" y="153.33" width="17.07" height="17.07"/><rect class="cls-13" x="17.07" y="204.53" width="17.07" height="17.07"/><rect class="cls-13" x="76.8" y="127.73" width="17.07" height="17.07"/><rect class="cls-13" x="34.13" y="110.67" width="17.07" height="17.07"/><rect class="cls-13" x="59.73" y="332.53" width="17.07" height="17.07"/><rect class="cls-14" x="55.47" y="153.03" width="17.07" height="60.34" transform="translate(-110.8 98.91) rotate(-45)"/><rect class="cls-14" x="14.99" y="234.4" width="80.95" height="17.07" transform="translate(-73.98 30.01) rotate(-18.43)"/><rect class="cls-14" x="2.93" y="298.4" width="96.54" height="17.07" transform="translate(-202.04 126.1) rotate(-45)"/><rect class="cls-13" y="281.33" width="17.07" height="17.07"/><rect class="cls-13" y="153.33" width="17.07" height="17.07"/><path class="cls-12" d="M212.77,287.87l12.6,4.84a85.25,85.25,0,0,0,61.26,0l25.6-9.84a85.31,85.31,0,0,0,35.93-26.24l1.71-18-33.62-13.45a26.12,26.12,0,0,0-5.22-1.47A222,222,0,0,1,212.77,287.87Z"/><path class="cls-3" d="M278.17,260.52l65.6-26.24a34.13,34.13,0,0,1,44.37,19l16.39,41a34.17,34.17,0,0,1,0,25.35l-9.39,23.49a17.06,17.06,0,0,0,.11,13L460.8,511.73H349.87l-23.48-125.2A17.06,17.06,0,0,0,313,372.94l-12.54-2.51A34.14,34.14,0,0,1,275,348.63l-16.27-44.75A34.13,34.13,0,0,1,278.17,260.52Z"/><path class="cls-5" d="M272.16,263.64a33.92,33.92,0,0,1,6-3.12l9.59-3.84,18.61,46.55-15.84,6.34Z"/><polygon class="cls-5" points="299.9 251.83 315.75 245.49 335.59 291.78 319.9 298.51 299.9 251.83"/><path class="cls-5" d="M343.77,234.28a34.64,34.64,0,0,1,4.43-1.43L367,279.93l-15.85,6.34-18.95-47.38Z"/><path class="cls-3" d="M233.83,260.52l-65.6-26.24a34.13,34.13,0,0,0-44.37,19l-16.39,41a34.17,34.17,0,0,0,0,25.35l9.39,23.49a17.06,17.06,0,0,1-.11,13L51.2,511.73H162.13l23.48-125.2A17.06,17.06,0,0,1,199,372.94l12.54-2.51A34.14,34.14,0,0,0,237,348.63l16.27-44.75A34.13,34.13,0,0,0,233.83,260.52Z"/><path class="cls-5" d="M239.84,263.64a33.92,33.92,0,0,0-6-3.12l-9.59-3.84-18.61,46.55,15.84,6.34Z"/><polygon class="cls-5" points="212.1 251.83 196.25 245.49 176.41 291.78 192.1 298.51 212.1 251.83"/><path class="cls-5" d="M168.23,234.28a34.64,34.64,0,0,0-4.43-1.43L145,279.93l15.85,6.34,19-47.38Z"/><path class="cls-1" d="M349.3,508.72l.57,3H460.8l-20.08-47.68A187.07,187.07,0,0,1,349.3,508.72Z"/></g></svg>