<?xml version="1.0" encoding="iso-8859-1"?>
<!-- Generator: Adobe Illustrator 19.0.0, SVG Export Plug-In . SVG Version: 6.00 Build 0)  -->
<svg version="1.1" id="Layer_1" xmlns="http://www.w3.org/2000/svg" xmlns:xlink="http://www.w3.org/1999/xlink" x="0px" y="0px"
	 viewBox="0 0 512 512" style="enable-background:new 0 0 512 512;" xml:space="preserve">
<g>
	<g>
		<g>
			<path d="M255.999,219.351c60.475,0,109.675-49.2,109.675-109.675C365.674,49.201,316.476,0,255.999,0
				S146.324,49.2,146.324,109.676C146.324,170.153,195.524,219.351,255.999,219.351z M255.999,40.124
				c38.351,0,69.551,31.2,69.551,69.552c0,38.352-31.2,69.551-69.551,69.551c-38.351,0-69.551-31.2-69.551-69.551
				C186.448,71.326,217.649,40.124,255.999,40.124z"/>
			<path d="M362.347,260.366C192.436,182.193,1.22,308.095,1.22,491.938c0,11.08,8.982,20.062,20.062,20.062h469.436
				c11.08,0,20.062-8.982,20.062-20.062C510.78,388.807,449.143,300.314,362.347,260.366z M255.999,277.281
				c21.355,0,41.987,3.144,61.47,8.977l-61.47,60.228l-61.47-60.228C214.012,280.426,234.644,277.281,255.999,277.281z
				 M42.272,471.876c6.801-73.061,50.376-135.606,111.979-168.907l87.707,85.935c7.801,7.642,20.28,7.642,28.08,0l87.707-85.935
				c61.604,33.302,105.178,95.847,111.979,168.907H42.272z"/>
			<path d="M395.1,383.94v-9.362c0-11.08-8.982-20.062-20.062-20.062s-20.062,8.982-20.062,20.062v9.362h-9.362
				c-11.08,0-20.062,8.982-20.062,20.062c0,11.08,8.982,20.062,20.062,20.062h9.362v9.362c0,11.08,8.982,20.062,20.062,20.062
				s20.062-8.982,20.062-20.062v-9.362h9.362c11.08,0,20.062-8.982,20.062-20.062c0-11.08-8.982-20.062-20.062-20.062H395.1z"/>
		</g>
	</g>
</g>
<g>
</g>
<g>
</g>
<g>
</g>
<g>
</g>
<g>
</g>
<g>
</g>
<g>
</g>
<g>
</g>
<g>
</g>
<g>
</g>
<g>
</g>
<g>
</g>
<g>
</g>
<g>
</g>
<g>
</g>
</svg>
