<?xml version="1.0" encoding="iso-8859-1"?>
<!-- Generator: Adobe Illustrator 19.0.0, SVG Export Plug-In . SVG Version: 6.00 Build 0)  -->
<svg version="1.1" id="Layer_1" xmlns="http://www.w3.org/2000/svg" xmlns:xlink="http://www.w3.org/1999/xlink" x="0px" y="0px"
	 viewBox="0 0 512.002 512.002" style="enable-background:new 0 0 512.002 512.002;" xml:space="preserve">
<path style="fill:#E8F2FB;" d="M256.001,451.327c-121.026,0-222.673-80.617-255.274-190.331c-0.969-3.26-0.969-6.731,0-9.99
	C33.292,141.412,134.851,60.675,256.001,60.675c121.026,0,222.673,80.617,255.274,190.331c0.969,3.26,0.969,6.731,0,9.99
	C478.71,370.59,377.152,451.327,256.001,451.327z"/>
<path style="fill:#C7E9F4;" d="M511.275,251.006C478.71,141.413,377.152,60.675,256.001,60.675v390.652
	c121.025,0,222.672-80.615,255.274-190.331C512.244,257.737,512.244,254.265,511.275,251.006z"/>
<path style="fill:#51B3DA;" d="M256.001,389.033c-73.355,0-133.033-59.678-133.033-133.033c0-102.48,111.068-166.19,199.37-115.34
	c15.379,8.856,9.263,32.447-8.469,32.733c-15.586,0.251-26.655,15.571-21.729,30.56c4.678,14.233-9.593,27.463-23.449,21.646
	c-21.559-9.05-45.627,6.776-45.627,30.401c0,18.162,14.776,32.937,32.936,32.937s32.936-14.776,32.936-32.937
	c0-13-9.787-20.814,0.165-31.997c12.37-13.901,22.776,3.326,38.964-8.62c16.666-12.296,2.246-30.082,22.316-35.65
	c25.991-7.207,38.651,49.717,38.651,76.268C389.034,329.355,329.356,389.033,256.001,389.033z"/>
<g>
	<path style="fill:#39A3DB;" d="M287.375,222.315c5.047-4.659,6.91-11.835,4.765-18.362c-4.903-14.92,6.063-30.309,21.729-30.56
		c7.888-0.126,14.72-5.504,16.697-13.142c6.698-25.893-49.657-37.497-74.564-37.457V223.01
		C268.33,223.029,276.489,232.365,287.375,222.315z"/>
	<path style="fill:#39A3DB;" d="M350.382,179.733c-20.069,5.568-5.648,23.353-22.316,35.65c-16.183,11.943-26.603-5.272-38.964,8.62
		c-9.965,11.197-0.165,18.981-0.165,31.997c0,18.162-14.776,32.937-32.936,32.937v100.096c73.355,0,133.033-59.678,133.033-133.033
		C389.034,229.393,376.42,172.512,350.382,179.733z"/>
</g>
<path style="fill:#80D0E1;" d="M256.001,324.012c-37.502,0-68.011-30.51-68.011-68.012c0-48.575,49.632-81.483,94.277-62.743
	C350.392,221.76,330.011,324.012,256.001,324.012z M255.947,222.996c-16.669,0-32.884,13.452-32.884,33.004
	c0,18.162,14.776,32.937,32.936,32.937C299.525,288.938,299.574,222.996,255.947,222.996z"/>
<path style="fill:#48AEE2;" d="M282.267,193.259c-8.807-3.697-17.807-5.377-26.583-5.329v35.075
	c0.088-0.001,0.175-0.006,0.264-0.006c43.627,0,43.577,65.94,0.054,65.94c-0.106,0-0.212-0.007-0.318-0.008v35.075
	c0.106,0,0.212,0.008,0.318,0.008C330.011,324.012,350.392,221.76,282.267,193.259z"/>
<path style="fill:#80D0E1;" d="M313.148,141.13c-56.36,1.101-66.624,72.891-42.254,83.087c18.503,7.741,13.471,21.358,26.958,25.523
	c35.665,11.015,71.946-15.551,71.946-53.132c0-0.008,0-0.016,0-0.025C369.751,164.67,342.846,140.165,313.148,141.13z
	 M313.711,218.832c-5.426-8.706-12.814-15.958-21.619-21.222c-0.573-12.761,9.841-23.106,22.16-23.106
	C344.104,174.503,343.556,219.606,313.711,218.832z"/>
<g>
</g>
<g>
</g>
<g>
</g>
<g>
</g>
<g>
</g>
<g>
</g>
<g>
</g>
<g>
</g>
<g>
</g>
<g>
</g>
<g>
</g>
<g>
</g>
<g>
</g>
<g>
</g>
<g>
</g>
</svg>
