<?xml version="1.0" encoding="utf-8"?>
<svg viewBox="0 0 21.285 23.97" fill="none" xmlns="http://www.w3.org/2000/svg">
  <path d="M 6.678 2.763 C 5.662 2.763 5.027 3.864 5.535 4.742 C 5.772 5.151 6.207 5.402 6.678 5.402 C 7.694 5.402 8.329 4.303 7.821 3.423 C 7.585 3.015 7.149 2.763 6.678 2.763 Z M 2.944 2.763 C 3.959 -0.111 7.703 -0.81 9.686 1.506 C 10.003 1.876 10.25 2.304 10.412 2.763 L 19.873 2.763 C 20.889 2.763 21.524 3.864 21.016 4.742 C 20.78 5.151 20.344 5.402 19.873 5.402 L 10.412 5.402 C 9.397 8.277 5.651 8.975 3.67 6.66 C 3.353 6.289 3.106 5.863 2.944 5.402 L 1.4 5.402 C 0.384 5.402 -0.251 4.303 0.257 3.423 C 0.493 3.015 0.929 2.763 1.4 2.763 L 2.944 2.763 Z M 14.595 10.68 C 13.579 10.68 12.944 11.781 13.452 12.659 C 13.689 13.068 14.124 13.319 14.595 13.319 C 15.611 13.319 16.246 12.22 15.738 11.34 C 15.502 10.932 15.066 10.68 14.595 10.68 Z M 10.861 10.68 C 11.876 7.806 15.62 7.107 17.603 9.423 C 17.92 9.793 18.167 10.221 18.329 10.68 L 19.873 10.68 C 20.889 10.68 21.524 11.781 21.016 12.659 C 20.78 13.068 20.344 13.319 19.873 13.319 L 18.329 13.319 C 17.315 16.194 13.568 16.892 11.587 14.577 C 11.27 14.206 11.023 13.78 10.861 13.319 L 1.4 13.319 C 0.384 13.319 -0.251 12.22 0.257 11.34 C 0.493 10.932 0.929 10.68 1.4 10.68 L 10.861 10.68 Z M 6.678 18.597 C 5.662 18.597 5.027 19.698 5.535 20.576 C 5.772 20.985 6.207 21.236 6.678 21.236 C 7.694 21.236 8.329 20.137 7.821 19.257 C 7.585 18.849 7.149 18.597 6.678 18.597 Z M 2.944 18.597 C 3.959 15.723 7.703 15.024 9.686 17.34 C 10.003 17.71 10.25 18.138 10.412 18.597 L 19.873 18.597 C 20.889 18.597 21.524 19.698 21.016 20.576 C 20.78 20.985 20.344 21.236 19.873 21.236 L 10.412 21.236 C 9.397 24.111 5.651 24.809 3.67 22.494 C 3.353 22.123 3.106 21.697 2.944 21.236 L 1.4 21.236 C 0.384 21.236 -0.251 20.137 0.257 19.257 C 0.493 18.849 0.929 18.597 1.4 18.597 L 2.944 18.597 Z" style="fill: rgb(255, 255, 255);"/>
</svg>