<?xml version="1.0" encoding="utf-8"?>
<svg viewBox="0 0 511.999 511.999" style="enable-background:new 0 0 511.999 511.999;" xmlns="http://www.w3.org/2000/svg">
  <path d="M 435.352 190.393 C 432.537 169.454 424.346 150.073 411.662 134.345 C 399.928 119.792 384.705 108.975 368.802 103.884 C 356.985 100.11 345.34 98.198 334.181 98.198 C 305.214 98.198 279.595 110.94 260.933 134.356 C 240.144 110.603 215.683 98.577 188.079 98.577 C 177.661 98.577 166.793 100.362 155.776 103.882 C 139.859 108.973 124.633 119.792 112.895 134.343 C 100.207 150.072 92.014 169.454 89.199 190.394 C 84.652 224.221 94.254 261.12 116.97 297.098 C 143.227 338.686 186.809 379.471 246.505 418.318 C 251.21 421.378 256.663 422.996 262.277 422.996 C 267.89 422.996 273.344 421.378 278.048 418.318 C 337.742 379.47 381.324 338.686 407.58 297.096 C 430.293 261.118 439.896 224.22 435.352 190.393 Z M 262.275 404.137 C 260.366 404.137 258.456 403.596 256.79 402.51 C 43.196 263.518 103.7 140.341 161.515 121.845 C 171.017 118.81 179.856 117.435 188.08 117.435 C 216.518 117.435 237.593 133.874 253.284 154.881 C 255.323 157.611 258.376 158.972 261.414 158.972 C 264.626 158.972 267.818 157.447 269.758 154.408 C 283.952 132.193 305.766 117.059 334.18 117.059 C 343.155 117.059 352.794 118.571 363.052 121.847 C 420.843 140.343 481.348 263.519 267.76 402.512 C 266.095 403.596 264.184 404.137 262.275 404.137 Z" style=""/>
  <g style="" transform="matrix(0.680377, 0, 0, 0.680377, 88.099007, 86.421082)"/>
  <g style="" transform="matrix(0.680377, 0, 0, 0.680377, 88.099007, 86.421082)"/>
  <g style="" transform="matrix(0.680377, 0, 0, 0.680377, 88.099007, 86.421082)"/>
  <g style="" transform="matrix(0.680377, 0, 0, 0.680377, 88.099007, 86.421082)"/>
  <g style="" transform="matrix(0.680377, 0, 0, 0.680377, 88.099007, 86.421082)"/>
  <g style="" transform="matrix(0.680377, 0, 0, 0.680377, 88.099007, 86.421082)"/>
  <g style="" transform="matrix(0.680377, 0, 0, 0.680377, 88.099007, 86.421082)"/>
  <g style="" transform="matrix(0.680377, 0, 0, 0.680377, 88.099007, 86.421082)"/>
  <g style="" transform="matrix(0.680377, 0, 0, 0.680377, 88.099007, 86.421082)"/>
  <g style="" transform="matrix(0.680377, 0, 0, 0.680377, 88.099007, 86.421082)"/>
  <g style="" transform="matrix(0.680377, 0, 0, 0.680377, 88.099007, 86.421082)"/>
  <g style="" transform="matrix(0.680377, 0, 0, 0.680377, 88.099007, 86.421082)"/>
  <g style="" transform="matrix(0.680377, 0, 0, 0.680377, 88.099007, 86.421082)"/>
  <g style="" transform="matrix(0.680377, 0, 0, 0.680377, 88.099007, 86.421082)"/>
  <g style="" transform="matrix(0.680377, 0, 0, 0.680377, 88.099007, 86.421082)"/>
</svg>