<svg id="Layer_1" data-name="Layer 1" xmlns="http://www.w3.org/2000/svg" viewBox="0 0 700 700"><path d="M203.57,400.85v54.82H176.15a28.14,28.14,0,0,0,0,56.27H524.56a28.14,28.14,0,1,0,0-56.27H497.15V400.85c0-36.79-16.59-70.69-44.72-94.49l-57.71-46.89,57.71-46.88a122.32,122.32,0,0,0,44.72-94.5V63.27h27.41A28.16,28.16,0,0,0,552.7,35.14,27.72,27.72,0,0,0,524.56,7H176.15A28.16,28.16,0,0,0,148,35.13a27.72,27.72,0,0,0,28.13,28.14h27.42v54.82c0,36.78,16.59,70.69,44.72,94.49L306,259.47l-57.71,46.88c-28.85,23.81-44.72,57.72-44.72,94.5Zm55.54-282V64H440.17V118.8a65.05,65.05,0,0,1-23.8,50.5L350,223.4l-66.36-54.1c-15.15-12.26-24.53-31-24.53-50.5Zm24.53,231.56L350,296.26l66.36,54.1a65,65,0,0,1,23.81,50.49v54.82H259.11V400.85c0-19.48,9.37-38.23,24.52-50.49Z"/><path d="M401.22,641.78A51.22,51.22,0,1,1,350,590.57a51.22,51.22,0,0,1,51.22,51.21"/><path d="M241.8,641.78a51.22,51.22,0,1,1-51.22-51.21,51.22,51.22,0,0,1,51.22,51.21"/><path d="M560.63,641.78a51.22,51.22,0,1,1-51.21-51.21,51.22,51.22,0,0,1,51.21,51.21"/></svg>