<?xml version="1.0" encoding="iso-8859-1"?>
<!-- Generator: Adobe Illustrator 19.0.0, SVG Export Plug-In . SVG Version: 6.00 Build 0)  -->
<svg version="1.1" id="Layer_1" xmlns="http://www.w3.org/2000/svg" xmlns:xlink="http://www.w3.org/1999/xlink" x="0px" y="0px"
	 viewBox="0 0 330 330" style="enable-background:new 0 0 330 330;" xml:space="preserve">
<path id="XMLID_512_" d="M325.606,304.393l-42.276-42.275c10.49-14.716,16.666-32.71,16.666-52.118
	c0-26.593-11.598-50.526-29.996-67.017V75.001c0-8.284-6.716-15-15-15h-45v-45c0-8.284-6.716-15-15-15H75c-8.284,0-15,6.716-15,15
	v45H15c-8.284,0-15,6.716-15,15V235c0,8.284,6.716,15,15,15h114.391c14.752,29.608,45.34,50,80.605,50
	c19.41,0,37.404-6.177,52.122-16.668l42.275,42.275C307.322,328.535,311.161,330,315,330s7.678-1.464,10.606-4.393
	C331.465,319.748,331.465,310.251,325.606,304.393z M90,30.001h90v30H90V30.001z M30,220V90.001h45h120h45v35.148
	c-9.39-3.33-19.487-5.149-30.004-5.149c-49.626,0-90,40.374-90,90c0,3.38,0.193,6.715,0.559,10H30z M149.996,210
	c0-33.084,26.916-60,60-60s60,26.916,60,60s-26.916,60-60,60S149.996,243.084,149.996,210z"/>
<g>
</g>
<g>
</g>
<g>
</g>
<g>
</g>
<g>
</g>
<g>
</g>
<g>
</g>
<g>
</g>
<g>
</g>
<g>
</g>
<g>
</g>
<g>
</g>
<g>
</g>
<g>
</g>
<g>
</g>
</svg>
