<?xml version="1.0" encoding="utf-8"?>
<svg viewBox="0 0 7.708 9.559" fill="none" xmlns="http://www.w3.org/2000/svg">
  <path d="M 1.854 4.242 L 5.854 4.242 L 5.854 3.242 L 1.854 3.242 L 1.854 4.242 Z M 6.354 4.742 L 6.354 7.742 L 7.354 7.742 L 7.354 4.742 L 6.354 4.742 Z M 5.854 8.242 L 1.854 8.242 L 1.854 9.242 L 5.854 9.242 L 5.854 8.242 Z M 1.354 7.742 L 1.354 4.742 L 0.354 4.742 L 0.354 7.742 L 1.354 7.742 Z M 1.854 8.242 C 1.578 8.242 1.354 8.018 1.354 7.742 L 0.354 7.742 C 0.354 8.57 1.025 9.242 1.854 9.242 L 1.854 8.242 Z M 6.354 7.742 C 6.354 8.018 6.13 8.242 5.854 8.242 L 5.854 9.242 C 6.682 9.242 7.354 8.57 7.354 7.742 L 6.354 7.742 Z M 5.854 4.242 C 6.13 4.242 6.354 4.466 6.354 4.742 L 7.354 4.742 C 7.354 3.913 6.682 3.242 5.854 3.242 L 5.854 4.242 Z M 1.854 3.242 C 1.025 3.242 0.354 3.913 0.354 4.742 L 1.354 4.742 C 1.354 4.466 1.578 4.242 1.854 4.242 L 1.854 3.242 Z M 2.354 3.742 L 2.354 2.742 L 1.354 2.742 L 1.354 3.742 L 2.354 3.742 Z M 5.354 2.742 L 5.354 3.742 L 6.354 3.742 L 6.354 2.742 L 5.354 2.742 Z M 3.854 1.242 C 4.682 1.242 5.354 1.913 5.354 2.742 L 6.354 2.742 C 6.354 1.361 5.235 0.242 3.854 0.242 L 3.854 1.242 Z M 2.354 2.742 C 2.354 1.913 3.025 1.242 3.854 1.242 L 3.854 0.242 C 2.473 0.242 1.354 1.361 1.354 2.742 L 2.354 2.742 Z" fill="black"/>
</svg>