<?xml version="1.0" encoding="utf-8"?>
<svg viewBox="0 0 700 700" xmlns="http://www.w3.org/2000/svg">
  <g transform="matrix(1, 0, 0, 1, 15.785732, 78.928658)">
    <path d="M 151.67 120 C 145.424 119.91 139.404 122.332 134.955 126.715 C 130.506 131.102 128.002 137.086 128.002 143.332 C 128.002 149.578 130.506 155.566 134.955 159.949 C 139.404 164.336 145.424 166.754 151.67 166.668 L 548.34 166.668 L 548.336 166.668 C 554.582 166.754 560.602 164.336 565.051 159.949 C 569.5 155.566 572.004 149.578 572.004 143.332 C 572.004 137.086 569.5 131.102 565.051 126.715 C 560.602 122.332 554.582 119.91 548.336 120 Z" fill-rule="evenodd"/>
    <path d="m151.67 256.67c-6.2461-0.089844-12.266 2.3281-16.715 6.7148-4.4492 4.3867-6.9531 10.371-6.9531 16.617s2.5039 12.23 6.9531 16.617c4.4492 4.3867 10.469 6.8047 16.715 6.7148h256.67-0.003907c6.2461 0.089844 12.266-2.3281 16.715-6.7148 4.4492-4.3867 6.9531-10.371 6.9531-16.617s-2.5039-12.23-6.9531-16.617c-4.4492-4.3867-10.469-6.8047-16.715-6.7148z" fill-rule="evenodd"/>
    <path d="M 151.67 393.33 C 145.424 393.244 139.404 395.662 134.955 400.049 C 130.506 404.432 128.002 410.42 128.002 416.666 C 128.002 422.912 130.506 428.896 134.955 433.283 C 139.404 437.666 145.424 440.088 151.67 439.998 L 268.34 439.998 L 268.336 439.998 C 274.582 440.087 280.602 437.666 285.051 433.283 C 289.5 428.896 292.004 422.912 292.004 416.666 C 292.004 410.42 289.5 404.432 285.051 400.049 C 280.602 395.662 274.582 393.244 268.336 393.33 Z" fill-rule="evenodd"/>
  </g>
</svg>