<svg id="Layer_1" data-name="Layer 1" xmlns="http://www.w3.org/2000/svg" viewBox="0 0 1024 1024"><path d="M459.76,514.36a54.61,54.61,0,1,0,54.6-54.6A54.61,54.61,0,0,0,459.76,514.36Zm227.52,0a54.6,54.6,0,1,0,54.6-54.6A54.6,54.6,0,0,0,687.28,514.36Zm-455,0a54.61,54.61,0,1,0,54.61-54.6A54.61,54.61,0,0,0,232.24,514.36ZM984.41,316.88a509,509,0,0,0-470-312.15h-2.27A509.87,509.87,0,0,0,59.33,744.16V917.07a52.33,52.33,0,0,0,52.33,52.33h173a511.36,511.36,0,0,0,227.4,54.6h2.39a507.79,507.79,0,0,0,358.9-147.32,511.46,511.46,0,0,0,111-559.8ZM812.52,815.14c-79.74,79-185.54,122.4-298.16,122.4h-1.93a424.67,424.67,0,0,1-196.92-49.48L306,882.94H145.79V722.77l-5.12-9.56A424.79,424.79,0,0,1,91.18,516.3c-.45-113.42,42.89-219.9,122.41-300.1s185.54-124.56,298.95-125h1.94A422.7,422.7,0,0,1,937.77,516.3c-.68,113.3-45.16,219.44-125.25,298.84Z"/></svg>