<?xml version="1.0" ?><svg viewBox="0 0 512 512" xmlns="http://www.w3.org/2000/svg"><defs><style>.cls-1{fill:#f0a5a5;}.cls-2{fill:#cc8c8c;}.cls-3{fill:#0071af;}.cls-4{fill:#006095;}.cls-5{fill:#ec9090;}.cls-6{fill:#f9b7b7;}.cls-7{fill:#d49c9c;}.cls-8{fill:#ea8383;}.cls-9{fill:#d27676;}</style></defs><g data-name="/ FLAT" id="_FLAT"><rect class="cls-1" height="80" width="112" x="200" y="272"/><path class="cls-2" d="M232,352h80V272A80.00005,80.00005,0,0,1,232,352Z"/><path class="cls-3" d="M460.75635,408.81982a80.00071,80.00071,0,0,0-53.78516-52.8872L312,328h0a112.87137,112.87137,0,0,1-112,0h0l-94.97119,27.93262a80.00071,80.00071,0,0,0-53.78516,52.8872l-7.76966,24.863A48,48,0,0,0,89.28905,496H422.711A48,48,0,0,0,468.526,433.68287Z"/><path class="cls-4" d="M468.52588,433.68286l-7.76953-24.863q-1.19238-3.81518-2.74756-7.45214A199.85662,199.85662,0,0,1,288,496H422.71094A47.99976,47.99976,0,0,0,468.52588,433.68286Z"/><path class="cls-5" d="M149.66553,152A29.66557,29.66557,0,0,0,120,181.66553v.00012a29.66578,29.66578,0,0,0,16.39868,26.53369L168,224V152Z"/><path class="cls-5" d="M362.33447,152H344v72l31.60132-15.80066A29.66578,29.66578,0,0,0,392,181.66565v-.00012A29.66557,29.66557,0,0,0,362.33447,152Z"/><path class="cls-1" d="M175.35795,203.492,151.95126,234.701a16.45442,16.45442,0,0,1-27.88081-2.514l0,0a16.45441,16.45441,0,0,1,.70374-15.98235l51.65968-83.947a14.92549,14.92549,0,0,0-4.43224-20.24116l0,0a14.92548,14.92548,0,0,0-20.42453,3.7435L103.594,182.93618a79.7924,79.7924,0,0,0-10.768,71.611l0,.00008a79.79237,79.79237,0,0,1-6.07836,64.21939l-56.888,101.58572C12.8962,450.64424,34.7913,488,69.5096,488h.00011a45.44372,45.44372,0,0,0,43.76067-33.19074L159.977,288l40.55044-67.58406a15.18525,15.18525,0,0,0-4.598-20.44764h0A15.18525,15.18525,0,0,0,175.35795,203.492Z"/><path class="cls-1" d="M336.64205,203.492,360.04874,234.701a16.45442,16.45442,0,0,0,27.88081-2.514l0,0a16.45441,16.45441,0,0,0-.70374-15.98235l-51.65968-83.947a14.92549,14.92549,0,0,1,4.43224-20.24116l0,0a14.92548,14.92548,0,0,1,20.42453,3.7435L408.406,182.93618a79.7924,79.7924,0,0,1,10.768,71.611l0,.00008a79.79237,79.79237,0,0,0,6.07836,64.21939l56.888,101.58572C499.1038,450.64424,477.2087,488,442.4904,488h-.00011a45.44372,45.44372,0,0,1-43.76067-33.19074L352.023,288l-40.55044-67.58406a15.18525,15.18525,0,0,1,4.598-20.44764h0A15.18525,15.18525,0,0,1,336.64205,203.492Z"/><path class="cls-6" d="M152,88V206.76929a79.99994,79.99994,0,0,0,51.28174,74.6676l24,9.23083a80.00155,80.00155,0,0,0,57.43652,0l24-9.23083A79.99994,79.99994,0,0,0,360,206.76929V72Z"/><path class="cls-7" d="M215.46875,286.12427l11.813,4.54345a80.00155,80.00155,0,0,0,57.43652,0l24-9.23083A79.99994,79.99994,0,0,0,360,206.76929V136l-5.19043-1.62195A208.378,208.378,0,0,1,215.46875,286.12427Z"/><polygon class="cls-5" points="232 96 360 136 360 64 232 96"/><path class="cls-8" d="M264,216h-7.05566a22.47218,22.47218,0,0,1-17.97754-35.95557l18.63281-24.84472,12.80078,9.60058L251.7666,189.64453A6.472,6.472,0,0,0,256.94434,200H264Z"/><rect class="cls-8" height="40" transform="translate(-48 232) rotate(-53.1301)" width="15.99961" x="200.0002" y="144"/><rect class="cls-8" height="15.99961" transform="translate(-37.60062 215.19583) rotate(-36.8692)" width="40" x="284" y="156.0002"/><rect class="cls-8" height="16.00011" transform="translate(-82.09914 140.2649) rotate(-26.56818)" width="53.66563" x="229.16718" y="235.99994"/><path class="cls-9" d="M345.25567,82.907,152,128V80a56,56,0,0,1,56-56H392v.00005A60.48928,60.48928,0,0,1,345.25567,82.907Z"/><polygon class="cls-3" points="223.155 139.578 208.845 132.422 228.72 92.672 204.72 84.672 224.845 44.422 239.155 51.578 227.28 75.328 251.28 83.328 223.155 139.578"/><path class="cls-1" d="M152,171.96252V115.22559a14.91579,14.91579,0,0,1,24.43359,17.032Z"/><path class="cls-2" d="M400.98242,461.03857A45.44282,45.44282,0,0,0,442.49023,488h0c34.71827,0,56.61377-37.35571,39.64991-67.64771l-17.29541-30.88476A200.92373,200.92373,0,0,1,400.98242,461.03857Z"/><path class="cls-1" d="M360,171.96252V115.22559a14.91579,14.91579,0,0,0-24.43359,17.032Z"/></g></svg>