<svg id="Layer_1" data-name="Layer 1" xmlns="http://www.w3.org/2000/svg" viewBox="0 0 384 384"><defs><style>.cls-1{fill:#f0a5a5;}.cls-2{fill:#cc8c8c;}.cls-3{fill:#0071af;}.cls-4{fill:#006095;}.cls-5{fill:#ec9090;}.cls-6{fill:#f9b7b7;}.cls-7{fill:#d49c9c;}.cls-8{fill:#ea8383;}.cls-9{fill:#d27676;}</style></defs><rect class="cls-1" x="150" y="204" width="84" height="60"/><path class="cls-2" d="M174,264h60V204a60,60,0,0,1-60,60Z"/><path class="cls-3" d="M345.57,306.61A60,60,0,0,0,305.23,267L234,246a84.66,84.66,0,0,1-84,0L78.77,267a60,60,0,0,0-40.34,39.66L32.6,325.26A36,36,0,0,0,67,372H317a36,36,0,0,0,34.36-46.74Z"/><path class="cls-4" d="M351.39,325.26l-5.82-18.65c-.6-1.9-1.28-3.77-2.06-5.59A149.9,149.9,0,0,1,216,372H317a36,36,0,0,0,34.36-46.74Z"/><path class="cls-5" d="M271.75,114H258v54l23.7-11.85A22.25,22.25,0,0,0,271.75,114Zm-159.5,0a22.25,22.25,0,0,0-10,42.15L126,168V114Z"/><path class="cls-1" d="M252.48,152.62,270,176a12.34,12.34,0,0,0,20.38-13.87l-38.75-63a11.2,11.2,0,0,1,18.65-12.37l36,50.38a59.86,59.86,0,0,1,8.08,53.71,59.82,59.82,0,0,0,4.56,48.16l42.66,76.19C374.33,338,357.91,366,331.87,366a34.08,34.08,0,0,1-32.82-24.89L264,216,233.6,165.31a11.39,11.39,0,0,1,18.88-12.69Zm-121,0L114,176a12.34,12.34,0,0,1-20.38-13.87l38.75-63a11.2,11.2,0,0,0-18.65-12.37l-36,50.38a59.88,59.88,0,0,0-8.07,53.71,59.82,59.82,0,0,1-4.56,48.16L22.4,315.27C9.67,338,26.09,366,52.13,366A34.08,34.08,0,0,0,85,341.11L120,216l30.42-50.69a11.39,11.39,0,0,0-18.88-12.69Z"/><path class="cls-6" d="M114,66v89.08a60,60,0,0,0,38.46,56l18,6.92a60,60,0,0,0,43.08,0l18-6.92a60,60,0,0,0,38.46-56V54Z"/><path class="cls-7" d="M161.6,214.59l8.86,3.41a60,60,0,0,0,43.08,0l18-6.92a60,60,0,0,0,38.46-56V102l-3.89-1.21A156.29,156.29,0,0,1,161.6,214.59Z"/><polygon class="cls-5" points="174 72 270 102 270 48 174 72"/><path class="cls-8" d="M198,162h-5.29a16.86,16.86,0,0,1-13.49-27l14-18.63,9.6,7.2-14,18.63a4.86,4.86,0,0,0,3.89,7.77H198Z"/><rect class="cls-8" x="150" y="108" width="12" height="30" transform="translate(-36 174.02) rotate(-53.14)"/><rect class="cls-8" x="213" y="117" width="30" height="12" transform="translate(-28.2 161.4) rotate(-36.87)"/><rect class="cls-8" x="171.87" y="177" width="40.25" height="12" transform="translate(-61.58 105.21) rotate(-26.57)"/><path class="cls-9" d="M258.94,62.18,114,96V60a42,42,0,0,1,42-42H294A45.37,45.37,0,0,1,258.94,62.18Z"/><polygon class="cls-3" points="167.37 104.68 156.63 99.32 171.54 69.5 153.54 63.5 168.63 33.32 179.37 38.68 170.46 56.5 188.46 62.5 167.37 104.68"/><path class="cls-1" d="M114,129V86.42a11.18,11.18,0,0,1,18.32,12.77Z"/><path class="cls-2" d="M300.74,345.78A34.08,34.08,0,0,0,331.87,366c26,0,42.46-28,29.74-50.73l-13-23.17a150.63,150.63,0,0,1-47.9,53.68Z"/><path class="cls-1" d="M270,129V86.42a11.18,11.18,0,0,0-18.32,12.77Z"/></svg>