<?xml version="1.0" encoding="utf-8"?>
<svg viewBox="0 48.181 449.691 463.819" xmlns="http://www.w3.org/2000/svg">
  <g style="" transform="matrix(0.631801, 0, 0, 0.631801, 90.635788, 101.402641)">
    <path d="M222.987,510c31.418,0,57.529-22.646,62.949-52.5H160.038C165.458,487.354,191.569,510,222.987,510z" style="fill: rgb(179, 179, 179);"/>
    <path d="M 432.871 352.059 C 410.621 329.809 382.987 319.118 382.987 211 C 382.987 131.606 325.156 65.731 249.324 53.17 C 249.324 53.17 238.849 50.298 223.588 50.298 C 208.809 50.298 196.65 53.17 196.65 53.17 C 120.818 65.731 62.987 131.606 62.987 211 C 62.987 319.118 35.344 329.809 13.094 352.059 C -17.055 382.208 4.312 434 47.035 434 L 398.93 434 C 441.568 434 463.081 382.269 432.871 352.059 Z" style="fill: rgb(179, 179, 179);"/>
  </g>
</svg>