<?xml version="1.0" encoding="iso-8859-1"?>
<!-- Generator: Adobe Illustrator 19.0.0, SVG Export Plug-In . SVG Version: 6.00 Build 0)  -->
<svg version="1.1" id="Layer_1" xmlns="http://www.w3.org/2000/svg" xmlns:xlink="http://www.w3.org/1999/xlink" x="0px" y="0px"
	 viewBox="0 0 512.001 512.001" style="enable-background:new 0 0 512.001 512.001;" xml:space="preserve">
<g>
	<g>
		<g>
			<path d="M356.668,273.804c-63.975-29.436-137.361-29.436-201.336,0C73.212,311.58,14.825,395.358,14.825,493.011
				c0,10.488,8.503,18.991,18.991,18.991c7.881,0,436.49,0,444.369,0h0.001c10.488,0,18.991-8.503,18.991-18.991
				C497.175,396.052,439.376,311.85,356.668,273.804z M314.188,298.313l-58.189,57.011l-58.189-57.011
				C234.707,287.266,275.38,286.694,314.188,298.313z M316.732,409.77v64.249H53.685c6.437-69.16,47.684-128.366,105.999-159.889
				l83.025,81.346c7.384,7.234,19.198,7.234,26.582,0l83.025-81.346c32.913,17.792,60.382,44.407,79.231,76.649h-95.823
				C325.235,390.78,316.732,399.282,316.732,409.77z M354.713,474.018V428.76h94.064c4.901,14.668,8.104,29.842,9.537,45.259
				H354.713z"/>
			<path d="M86.349,234.979c14.889,0,324.412,0,339.301,0c10.488,0,18.991-8.503,18.991-18.991
				c0-66.029-34.181-126.601-89.927-160.773V18.991C354.713,8.503,346.21,0,335.722,0H176.276c-10.488,0-18.991,8.503-18.991,18.991
				v36.224c-55.747,34.171-89.927,94.742-89.927,160.773C67.358,226.476,75.861,234.979,86.349,234.979z M356.012,103.231
				c27.187,24.075,44.867,57.32,49.458,93.766h-69.243C356.996,171.686,365.371,136.8,356.012,103.231z M316.73,37.981
				c0,15.831,0,28.423,0,45.147H195.267c0-16.737,0-29.322,0-45.147H316.73z M190.894,121.11h130.211
				c6.026,37.954-23.098,75.887-65.105,75.887C214.045,196.997,184.854,159.193,190.894,121.11z M155.988,103.231
				c-9.157,32.822-1.457,67.901,19.785,93.766H106.53C111.119,160.551,128.8,127.306,155.988,103.231z"/>
		</g>
	</g>
</g>
<g>
</g>
<g>
</g>
<g>
</g>
<g>
</g>
<g>
</g>
<g>
</g>
<g>
</g>
<g>
</g>
<g>
</g>
<g>
</g>
<g>
</g>
<g>
</g>
<g>
</g>
<g>
</g>
<g>
</g>
</svg>
