<?xml version="1.0" encoding="iso-8859-1"?>
<!-- Generator: Adobe Illustrator 18.0.0, SVG Export Plug-In . SVG Version: 6.00 Build 0)  -->
<!DOCTYPE svg PUBLIC "-//W3C//DTD SVG 1.1//EN" "http://www.w3.org/Graphics/SVG/1.1/DTD/svg11.dtd">
<svg version="1.1" id="Capa_1" xmlns="http://www.w3.org/2000/svg" xmlns:xlink="http://www.w3.org/1999/xlink" x="0px" y="0px"
	 viewBox="0 0 298.346 298.346" style="enable-background:new 0 0 298.346 298.346;" xml:space="preserve">
<g>
	<path d="M264.954,135.766c-2.487,0-4.893,0.348-7.179,0.985c-2.156-12.625-13.171-22.269-26.402-22.269
		c-4.29,0-8.344,1.019-11.942,2.819c-4.877-6.675-12.759-11.023-21.64-11.023c-2.345,0-4.622,0.303-6.791,0.872V77.367
		c0-14.772-12.019-26.791-26.791-26.791s-26.791,12.019-26.791,26.791v67.922c-0.262,0.118-0.523,0.241-0.778,0.383l-15.224,8.475
		c-14.293,7.958-20.095,25.246-13.495,40.215l11.424,25.908c0.563,1.278,1.388,2.423,2.421,3.363l25.233,22.951
		c4.304,7.782,9.962,14.846,16.865,20.851l0.002,20.913c0.001,5.522,4.478,9.999,10,9.999h81.431c5.522,0,9.999-4.477,10-9.999
		l0.002-20.914c16.869-14.673,26.446-35.599,26.446-58.161v-46.716C291.745,147.784,279.726,135.766,264.954,135.766z
		 M136.79,210.262l-10.57-23.97c-2.408-5.461-0.291-11.769,4.923-14.672l6.274-3.493v41.145c0,0.536,0.032,1.065,0.042,1.599
		L136.79,210.262z M271.745,209.273c0,17.974-8.206,34.546-22.514,45.469c-2.478,1.891-3.932,4.83-3.932,7.947l-0.002,15.657
		h-61.433l-0.002-15.657c0-3.117-1.454-6.056-3.932-7.947c-14.308-10.923-22.514-27.496-22.514-45.469V77.367
		c0-3.745,3.047-6.791,6.791-6.791S171,73.622,171,77.367v96.096c0,5.523,4.478,10,10,10s10-4.477,10-10v-40.393
		c0-3.745,3.047-6.791,6.791-6.791s6.791,3.046,6.791,6.791v41.219c0,5.523,4.478,10,10,10s10-4.477,10-10v-33.015
		c0-3.745,3.047-6.791,6.791-6.791s6.791,3.046,6.791,6.791v21.284v10.905c0,5.523,4.478,10,10,10s10-4.477,10-10v-10.905
		c0-3.745,3.047-6.791,6.791-6.791s6.79,3.046,6.79,6.791V209.273z"/>
	<circle cx="22.993" cy="16.391" r="16.391"/>
	<circle cx="93.978" cy="16.391" r="16.391"/>
	<circle cx="164.964" cy="16.391" r="16.391"/>
	<circle cx="22.993" cy="70.989" r="16.391"/>
	<circle cx="93.978" cy="70.989" r="16.391"/>
	<circle cx="22.993" cy="125.587" r="16.391"/>
	<circle cx="93.978" cy="125.587" r="16.391"/>
</g>
<g>
</g>
<g>
</g>
<g>
</g>
<g>
</g>
<g>
</g>
<g>
</g>
<g>
</g>
<g>
</g>
<g>
</g>
<g>
</g>
<g>
</g>
<g>
</g>
<g>
</g>
<g>
</g>
<g>
</g>
</svg>
