<?xml version="1.0" encoding="utf-8"?>
<svg viewBox="0 0 18.011 17.856" style="enable-background:new 0 0 488.4 488.4;" xmlns="http://www.w3.org/2000/svg">
  <g style="" transform="matrix(0.040726, 0, 0, 0.040726, 0, 0.047981)">
    <g>
      <path d="M 0 203.25 C 0 315.35 91.2 406.45 203.2 406.45 C 254.8 406.45 302 387.05 337.9 355.25 L 417.021 428.703 C 419.421 431.103 422.521 432.303 425.721 432.303 C 428.921 432.303 432.021 431.103 434.421 428.703 C 439.221 423.903 439.221 416.203 434.421 411.403 L 355.2 337.95 C 387 302.05 406.4 254.95 406.4 203.25 C 406.4 91.15 315.2 0.05 203.2 0.05 C 91.2 0.05 0 91.15 0 203.25 Z M 381.9 203.25 C 381.9 301.75 301.7 381.95 203.2 381.95 C 104.7 381.95 24.5 301.75 24.5 203.25 C 24.5 104.75 104.7 24.55 203.2 24.55 C 301.7 24.55 381.9 104.65 381.9 203.25 Z"/>
    </g>
  </g>
  <g/>
  <g/>
  <g/>
  <g/>
  <g/>
  <g/>
  <g/>
  <g/>
  <g/>
  <g/>
  <g/>
  <g/>
  <g/>
  <g/>
  <g/>
</svg>